<svg xmlns="http://www.w3.org/2000/svg" width="1120" height="420" viewBox="0 0 1120 420" font-family="ui-monospace,SFMono-Regular,Menlo,Consolas,monospace">
<defs><linearGradient id="wm" x1="0" y1="0" x2="0" y2="1"><stop offset="0" stop-color="#dbe6f3"/><stop offset="1" stop-color="#3a4d68"/></linearGradient></defs>
<rect width="1120" height="420" rx="14" fill="#0b0d10" stroke="#1c2128"/>
<text x="56" y="190" font-size="104" font-weight="800" fill="url(#wm)" letter-spacing="1">vordr</text>
<text x="62" y="232" font-size="20" fill="#8b949e" xml:space="preserve">the warden of your servers</text>
<text x="62" y="390" font-size="13" fill="#6e7681" xml:space="preserve">gusta-ve · github.com/gusta-ve/vordr · Vörðr, the Norse guardian spirit</text>
<rect x="560" y="96" width="524" height="270" rx="10" fill="#0d1117" stroke="#1c2128"/>
<circle cx="580" cy="116" r="5" fill="#3a4150"/>
<circle cx="598" cy="116" r="5" fill="#3a4150"/>
<circle cx="616" cy="116" r="5" fill="#3a4150"/>
<text x="582" y="158" font-size="16" fill="#9cb4d6" font-weight="700" xml:space="preserve">vordr</text>
<text x="630.5" y="158" font-size="16" fill="#8b949e" xml:space="preserve">  ·  server status</text>
<line x1="582" y1="170" x2="1062" y2="170" stroke="#1c2128"/>
<text x="582.0" y="194" font-size="16" fill="#8b949e" xml:space="preserve">host</text>
<text x="669.3" y="194" font-size="16" fill="#8b949e" xml:space="preserve">state</text>
<text x="795.4" y="194" font-size="16" fill="#8b949e" xml:space="preserve">uptime</text>
<text x="902.1" y="194" font-size="16" fill="#8b949e" xml:space="preserve">ram</text>
<text x="970.0" y="194" font-size="16" fill="#8b949e" xml:space="preserve">disk</text>
<text x="582.0" y="224" font-size="16" fill="#c9d1d9" xml:space="preserve">web</text>
<circle cx="673.3" cy="219" r="4" fill="#5fbf73"/>
<text x="685.3" y="224" font-size="16" fill="#5fbf73" xml:space="preserve">online</text>
<text x="795.4" y="224" font-size="16" fill="#c9d1d9" xml:space="preserve">2w 5d</text>
<text x="902.1" y="224" font-size="16" fill="#c9d1d9" xml:space="preserve">32%</text>
<text x="970.0" y="224" font-size="16" fill="#c9d1d9" xml:space="preserve">22%</text>
<text x="582.0" y="254" font-size="16" fill="#c9d1d9" xml:space="preserve">db</text>
<circle cx="673.3" cy="249" r="4" fill="#5fbf73"/>
<text x="685.3" y="254" font-size="16" fill="#5fbf73" xml:space="preserve">online</text>
<text x="795.4" y="254" font-size="16" fill="#c9d1d9" xml:space="preserve">4w 4d</text>
<text x="902.1" y="254" font-size="16" fill="#c9d1d9" xml:space="preserve">18%</text>
<text x="970.0" y="254" font-size="16" fill="#c9d1d9" xml:space="preserve">62%</text>
<text x="582" y="292" font-size="16" fill="#6e7681" xml:space="preserve">total  EUR 4.99 + USD 60.00</text>
<text x="582" y="318" font-size="16" fill="#6e7681" xml:space="preserve">Vultr  ·  credit USD 193.88  ·  ~57d left</text>
</svg>
